<?xml version="1.0" standalone="no"?>
<!DOCTYPE svg PUBLIC "-//W3C//DTD SVG 20010904//EN"
 "http://www.w3.org/TR/2001/REC-SVG-20010904/DTD/svg10.dtd">
<svg version="1.0" xmlns="http://www.w3.org/2000/svg"
 width="260.000000pt" height="260.000000pt" viewBox="0 0 260.000000 260.000000"
 preserveAspectRatio="xMidYMid meet">
<metadata>
Created by potrace 1.14, written by Peter Selinger 2001-2017
</metadata>
<g transform="translate(0.000000,260.000000) scale(0.100000,-0.100000)"
fill="#000000" stroke="none">
<path d="M984 2590 c-44 -17 -52 -46 -52 -203 -1 -138 1 -149 21 -172 27 -31
67 -43 134 -39 57 3 62 -2 55 -62 -4 -29 -8 -32 -45 -37 -53 -8 -157 -41 -225
-73 -29 -13 -56 -24 -60 -24 -4 0 -27 35 -52 77 -64 108 -110 136 -185 110
-50 -18 -85 -65 -85 -115 0 -30 53 -145 96 -206 11 -16 6 -25 -48 -82 -188
-196 -287 -452 -283 -726 3 -135 8 -176 41 -287 82 -272 276 -506 525 -632
166 -83 292 -113 479 -114 183 0 284 22 460 103 177 81 356 249 456 428 36 65
92 198 100 238 29 148 34 195 33 286 -2 170 -44 337 -121 480 -144 271 -411
472 -708 534 l-55 12 -2 42 c-2 27 2 43 10 44 11 1 67 4 125 7 13 1 34 12 47
26 24 24 25 28 25 180 l0 157 -28 28 -29 28 -304 0 c-167 0 -313 -4 -325 -8z"/>
</g>
</svg>
